<svg width="200" height="200" xmlns="http://www.w3.org/2000/svg"><title>Logo_ therabody</title><path d="m158.895 115.786 4.28 10.422 4.278-10.422H170L160.059 140h-2.547l3.752-9.139-6.19-15.075h3.82Zm-15.986 2.208v8c0 1.967 1.58 3.56 3.53 3.56h2.633a5.268 5.268 0 0 1-5.938 2.145c-2.23-.683-3.756-2.76-3.755-5.111v-3.561a5.337 5.337 0 0 1 3.53-5.033Zm-32.327-10.754v18.754c0 1.967 1.58 3.56 3.53 3.56h2.633a5.268 5.268 0 0 1-5.938 2.145c-2.23-.684-3.756-2.76-3.755-5.111V107.24h3.53Zm-12.942 8.072c3.249 0 5.883 2.657 5.883 5.934v10.208h-3.53v-7.122h-5.47a3.581 3.581 0 0 0 .092 3.502 3.516 3.516 0 0 0 3.025 1.72h1.718a4.687 4.687 0 0 1-5.686 2.088c-2.147-.789-3.421-3.019-3.023-5.288.398-2.27 2.354-3.923 4.638-3.92h4.706v-1.188c0-1.966-1.58-3.56-3.53-3.56h-3.53a5.856 5.856 0 0 1 4.707-2.374Zm29.105 2.682v8c0 .944.372 1.85 1.034 2.518a3.514 3.514 0 0 0 2.496 1.043h2.633a5.268 5.268 0 0 1-5.937 2.144c-2.231-.683-3.756-2.76-3.755-5.111v-3.561a5.337 5.337 0 0 1 3.53-5.033Zm-53.436-2.682c1.248 0 2.445.5 3.328 1.39a4.77 4.77 0 0 1 1.378 3.357v3.442h-9.35l.002.713c0 2.95 2.37 5.34 5.294 5.34h2.621a6.435 6.435 0 0 1-7.179 1.99c-2.57-.93-4.283-3.389-4.283-6.143v-2.968c.002-2.163 1.453-4.05 3.53-4.59l.01 3.76h5.825v-.95c0-1.639-1.316-2.968-2.94-2.968h-2.307a4.693 4.693 0 0 1 4.07-2.373Zm-16.13 0c2.761 0 5 2.258 5 5.044v11.098h-3.53v-10.208c0-1.966-1.58-3.56-3.53-3.56h-2.177a4.982 4.982 0 0 1 4.236-2.374Zm-4.825-8.072v24.214h-3.53V107.24h3.53Zm-4.706.475-.975 2.374H40.59v21.365h-3.53v-21.365H30l.975-2.374h16.673Zm105.542-.475v24.214h-3.53v-10.208c0-1.966-1.58-3.56-3.53-3.56h-2.633a5.266 5.266 0 0 1 6.163-2.07v-8.376h3.53Zm-69.292 8.546v15.668h-3.53v-15.668h3.53Zm31.67-.474c2.924 0 5.295 2.39 5.295 5.34v3.562a5.337 5.337 0 0 1-3.53 5.033v-8c0-1.967-1.58-3.562-3.53-3.562h-2.633a5.274 5.274 0 0 1 4.398-2.373Zm16.164 0c2.924 0 5.294 2.39 5.294 5.34v3.562a5.337 5.337 0 0 1-3.53 5.033v-8c0-1.967-1.58-3.562-3.529-3.562h-2.634a5.274 5.274 0 0 1 4.399-2.373Zm-47.54 2.373a3.67 3.67 0 0 1 4.102-2.31 3.7 3.7 0 0 1 3.002 3.646l-3.53 2.374v-1.632a2.068 2.068 0 0 0-2.058-2.078ZM100 60c8.768.01 15.873 7.178 15.883 16.024 0 8.85-7.111 16.023-15.883 16.023-8.772 0-15.883-7.174-15.883-16.023C84.117 67.174 91.228 60 100 60Zm-1.176 13.473-9.075 11.444a13.47 13.47 0 0 0 9.075 4.702V73.473Zm2.353 0v16.146a13.469 13.469 0 0 0 9.074-4.702l-9.074-11.444Zm11.507-2.197h-10.236l9.226 11.635a13.654 13.654 0 0 0 1.856-6.887 13.69 13.69 0 0 0-.846-4.748Zm-15.132 0H87.316a13.724 13.724 0 0 0 1.01 11.636l9.226-11.636ZM100 62.374c-4.71.002-9.08 2.475-11.537 6.528h23.074c-2.458-4.053-6.827-6.526-11.537-6.528Z" fill="#FFF" fill-rule="nonzero"/></svg>