<svg width="200" height="200" xmlns="http://www.w3.org/2000/svg"><path d="M180 91.553v-6.962h-16.28v30.429h.946l.18.21v.345h.285l.465-.24.09-.42v-1.666l.585-.33.135.09.585-.09.676.315v.495l.135.03.24-.45.12.18.615-.09v-.195h.75v-.3h1.38l.083.278.293-.293.375-.09.045-.18.195.03v.99l.255.645.075.286.24-.226.045.466h.195l.3-.66.27-.18h.57l.3-.09.45-.06.57.33-.03-.54-.18-.21.24-.18-.06-.39.6-.181.03-.27.18-.27.18.21.03.33h.631l.24-.21.09-1.47.27-.09.36.24.33-.36.21-.03.42.15.6.18.39.09.12 1.05h.181v-3.211h-8.822v-5.371h8.402v-6.782h-8.372v-5.282H180zm-25.713 3.331c0-3.88-3.72-3.76-3.72-3.76h-2.122v7.561h2.041s3.801.08 3.801-3.8zm1.6 8.242l5.122 7.442-.68.28-.24.6-.44-.32v.56l-.28-.2v.48l-.24.2v-.76l-.2-.52-.24.36-.56.08v.64l-.24.441v-1.88l-.361-.16-1.08-.12-.72-.32.28.52v2.32l-.32-.24v-1.32l-.56.56v-.64l-.44-.48.36-.56-.48.24-.4-.16v-1.04l-.121-.321-.4-.04-.32.48v.76l-.2.72h-.48l-4.042-6.761v9.042l-.48.44-1.24-.56-.36.28-.28-.96-1-.12v-.72h-1.04l-.24-.24-1.161-.04-.68.44-.6 1.24.08 1.08-.48.52V84.761h13.003s7.882.2 7.882 9.483c0 7.962-6.122 8.882-6.122 8.882zM132.441 80l-2.6 2.8S128 85.482 128 88.443v4.001l1.4-1.28v1.64l-1.4 1.36v.641l1.4-1.28v1.56l-1.4 1.28v.76l1.4-1.24v1.56l-1.4 1.361v.56l1.4-1.32v1.64l-1.4 1.28v.641l1.4-1.32v1.56l-1.4 1.36h-1.72v1.24l1.84 2.041v7.722l.24.2.04 1.44h.44l.2-.52.32-1.28.4-.36.52.32.12.6v2.241l.08.28v1.44l.4.24.24.32v-6.04l.24-1.081.4-.36.08-.44.2.4.401.24v5.041l.44-.36v-.72l.2-.72.4-.36.32.4v-8.443l2.181-2.18v-1.3h-1.62V87.321L132.442 80zm-27.488 28.808h1.56v.68l.561.24h.6v2.4l.32-.28.8.16.24.12.24.32h.24l.16 2.202.64.64-.08-.68h.401l.68-.12.6.8v-.96l-.32-.2v-.28l.4-.2v-.4l.44-.4v-9.324h8.003v-6.801h-8.083v-5.202h9.083v-6.932h-16.485v24.217zm-25.252-.195v3.631l.166.195v2.58h.78l.18.21v.346h.285l.465-.24.09-.42v-1.666l.585-.33.135.09.585-.09.676.315v.495l.135.03.24-.45.12.18.615-.09v-.195h.75v-.3h1.38l.083.278.293-.293.375-.09.045-.18.195.03v.99l.255.645.075.286.24-.226.045.466h.195l.3-.66.27-.18h.57l.3-.09.45-.06.57.33-.03-.54-.18-.21.24-.18-.06-.39.6-.181.03-.27.18-.27.18.21.03.33h.631l.24-.21.09-1.47.27-.09.36.24.33-.36.21-.03.42.15.6.18.39.09.12 1.05h.181v-3.211h-8.822v-5.371h8.402v-6.782h-8.372v-5.282h8.792v-6.962h-16.28v24.022zm-18.305 0V112.439l.165 2.58h.78l.18.21v.346h.286l.465-.24.09-.42v-1.666l.585-.33.135.09.585-.09.676.315v.495l.135.03.24-.45.12.18.615-.09v-.195h.75v-.3h1.38l.083.278.293-.293.375-.09.045-.18.195.03v.99l.255.645.075.286.24-.226.045.466h.195l.3-.66.27-.18h.57l.3-.09.45-.06.57.33-.03-.54-.18-.21.24-.18-.06-.39.6-.181.03-.27.18-.27.18.21.03.33h.631l.24-.21.09-1.47.27-.09.36.24.33-.36.21-.03.42.15.6.18.39.09.12 1.05h.18v-3.211h-8.822v-5.371h8.403v-6.782h-8.372v-5.282h8.792v-6.962h-16.28v24.022zM51.93 94.704c0-3.871-3.661-3.841-3.661-3.841h-2.1v7.862h1.8c.45 0 3.96-.15 3.96-4.02zm1.53 8.522l5.222 7.232-1.11.57-.48.27-.12.66h-.21v-.69l-.24-.09-.481.18h-.42v.84l-.18.15v-1.92l-.63-.24-.03-.18-.3-.06-.12.27-.36.03-.33.18v2.221h-.27l-.15-.42v-.39l-.39-.21-.301.15-.09-.84-.69-.9-.03-1.021-.24-.3-.45.33v1.29l-.36.48-.51-.15-4.052-6.751v9.032l-.33.51h-.33l-.87-.63-.42.27-.36-.99-.45.03h-.36v-.78l-1.08-.03-.241-.21-1.29-.03-.54.6h-.27l-.21.51-.18.69v1.26H38.755V84.591h11.882c.696 0 9.033.48 9.033 9.543 0 8.222-6.212 9.092-6.212 9.092zM20 84.591h16.475v6.872h-9.033v5.222h8.072v6.902h-8.042v9.272l-.45.24-.18.54.03 1.74h-.27v-.72l-.12-.24-.36.15-.45.09-.36-.06v.54l-.6-.06-.15-.18v-2.4l-.15-.12h-.21l-.15-.27-.601-.24-.36-.03-.27.21-.15-.09v-2.22l-.33.03-.33-.33-.45.06v-.541l-.36-.18h-.51l-.45.12-.241-.3V84.59z" fill="#FFF" fill-rule="evenodd"/></svg>
